
<svg width="120px" height="50px" viewBox="920 30 120 50" version="1.1" xmlns="http://www.w3.org/2000/svg" xmlns:xlink="http://www.w3.org/1999/xlink">
    <!-- Generator: Sketch 41 (35326) - http://www.bohemiancoding.com/sketch -->
    <desc>Created with Sketch.</desc>
    <defs></defs>
    <g id="Logo" stroke="none" stroke-width="1" fill="none" fill-rule="evenodd" transform="translate(920.000000, 30.000000)">
        <rect id="Square" fill="#000000" x="0" y="0" width="50" height="50"></rect>
        <path d="M72.1284635,29.6434316 L72.2040302,20.2412869 L72.1473552,20.2412869 L68.6712846,29.6434316 L66.4042821,29.6434316 L63.02267,20.2412869 L62.965995,20.2412869 L63.0415617,29.6434316 L60,29.6434316 L60,16.3565684 L64.5906801,16.3565684 L67.6322418,24.8766756 L67.7078086,24.8766756 L70.6171285,16.3565684 L75.2833753,16.3565684 L75.2833753,29.6434316 L72.1284635,29.6434316 Z M86.1649874,29.6434316 L85.1259446,27.0348525 L79.9496222,27.0348525 L78.9672544,29.6434316 L75.4534005,29.6434316 L81.0642317,16.3565684 L84.2002519,16.3565684 L89.7544081,29.6434316 L86.1649874,29.6434316 Z M82.5755668,19.9034853 L80.8753149,24.463807 L84.2380353,24.463807 L82.5755668,19.9034853 Z M101.467254,28.8364611 C100.812339,29.1742644 100.047234,29.4495074 99.1719144,29.6621984 C98.2965951,29.8748894 97.3425744,29.9812332 96.3098237,29.9812332 C95.2392894,29.9812332 94.2537828,29.8123341 93.3532746,29.4745308 C92.4527663,29.1367275 91.6782148,28.6613078 91.029597,28.0482574 C90.3809791,27.4352069 89.8740572,26.700183 89.5088161,25.8431635 C89.143575,24.9861441 88.9609572,24.0321768 88.9609572,22.9812332 C88.9609572,21.9177784 89.1467236,20.9544279 89.518262,20.0911528 C89.8898003,19.2278777 90.4030194,18.4928538 91.0579345,17.886059 C91.7128496,17.2792642 92.4811039,16.8132277 93.3627204,16.4879357 C94.2443369,16.1626436 95.195209,16 96.2153652,16 C97.273305,16 98.255663,16.1595158 99.1624685,16.4785523 C100.069274,16.7975887 100.806043,17.226092 101.372796,17.7640751 L99.3324937,20.0723861 C99.0176307,19.7095603 98.6020177,19.412423 98.0856423,19.1809651 C97.5692669,18.9495073 96.9836305,18.8337802 96.3287154,18.8337802 C95.7619619,18.8337802 95.2392971,18.9369963 94.7607053,19.1434316 C94.2821135,19.349867 93.8665005,19.637621 93.5138539,20.0067024 C93.1612073,20.3757838 92.8872806,20.8136704 92.6920655,21.3203753 C92.4968504,21.8270803 92.3992443,22.380694 92.3992443,22.9812332 C92.3992443,23.5942837 92.4874047,24.1572807 92.663728,24.6702413 C92.8400513,25.1832018 93.1013837,25.6242162 93.447733,25.9932976 C93.7940823,26.362379 94.2222896,26.650133 94.7323678,26.8565684 C95.2424459,27.0630037 95.8249338,27.1662198 96.4798489,27.1662198 C96.8576845,27.1662198 97.216623,27.13807 97.5566751,27.0817694 C97.8967271,27.0254689 98.2115855,26.9347638 98.5012594,26.8096515 L98.5012594,24.3887399 L95.9508816,24.3887399 L95.9508816,21.7989276 L101.467254,21.7989276 L101.467254,28.8364611 Z M103.167506,29.6434316 L103.167506,16.3565684 L106.416877,16.3565684 L106.416877,29.6434316 L103.167506,29.6434316 Z M120,27.8042895 C119.408057,28.4798961 118.677586,29.0147433 117.808564,29.4088472 C116.939542,29.802951 115.938293,30 114.804786,30 C113.772035,30 112.818014,29.8311009 111.942695,29.4932976 C111.067376,29.1554943 110.308567,28.6769468 109.666247,28.0576408 C109.023926,27.4383347 108.520153,26.6970553 108.154912,25.8337802 C107.789671,24.9705051 107.607053,24.0196656 107.607053,22.9812332 C107.607053,21.9177784 107.792819,20.9544279 108.164358,20.0911528 C108.535896,19.2278777 109.049115,18.4928538 109.70403,17.886059 C110.358945,17.2792642 111.1272,16.8132277 112.008816,16.4879357 C112.890433,16.1626436 113.841305,16 114.861461,16 C115.80605,16 116.734882,16.1657714 117.647985,16.497319 C118.561088,16.8288667 119.301005,17.3136697 119.867758,17.9517426 L117.676322,20.1286863 C117.374054,19.7158156 116.977332,19.409295 116.486146,19.2091153 C115.99496,19.0089355 115.491186,18.9088472 114.974811,18.9088472 C114.408058,18.9088472 113.888541,19.0120633 113.416247,19.2184987 C112.943952,19.424934 112.537785,19.7095603 112.197733,20.0723861 C111.857681,20.4352118 111.5932,20.8637151 111.404282,21.3579088 C111.215364,21.8521026 111.120907,22.3932053 111.120907,22.9812332 C111.120907,23.5817724 111.215364,24.1322584 111.404282,24.6327078 C111.5932,25.1331571 111.854532,25.5616604 112.188287,25.9182306 C112.522042,26.2748007 112.921912,26.5531715 113.387909,26.7533512 C113.853907,26.9535309 114.363977,27.0536193 114.918136,27.0536193 C115.560457,27.0536193 116.120904,26.9285088 116.599496,26.6782842 C117.078088,26.4280595 117.462215,26.1027723 117.751889,25.7024129 L120,27.8042895 Z" id="MAGIC" fill="#000000"></path>
        <path d="M60,34.1935484 L62.1285653,34.1935484 C62.511709,34.1935484 62.8593712,34.2347666 63.1715624,34.3172043 C63.4837535,34.399642 63.7515953,34.5250888 63.9750958,34.6935484 C64.1985963,34.862008 64.3706536,35.0734754 64.4912729,35.327957 C64.6118922,35.5824385 64.6722009,35.8817187 64.6722009,36.2258065 C64.6722009,36.5698942 64.6101184,36.8691744 64.4859515,37.1236559 C64.3617845,37.3781375 64.1879534,37.5896049 63.964453,37.7580645 C63.7409525,37.9265241 63.4713369,38.053763 63.1555981,38.1397849 C62.8398594,38.2258069 62.4904234,38.2688172 62.1072797,38.2688172 L60.7662835,38.2688172 L60.7662835,41.8064516 L60,41.8064516 L60,34.1935484 Z M60.7662835,37.6129032 L62.0647084,37.6129032 C62.6678049,37.6129032 63.1254419,37.4946248 63.437633,37.2580645 C63.7498242,37.0215042 63.9059174,36.6774216 63.9059174,36.2258065 C63.9059174,35.7526858 63.7445028,35.4068111 63.4216688,35.188172 C63.0988348,34.969533 62.6465192,34.8602151 62.0647084,34.8602151 L60.7662835,34.8602151 L60.7662835,37.6129032 Z M73.3567476,38 C73.3567476,38.5806481 73.2574155,39.1146929 73.0587484,39.6021505 C72.8600813,40.0896082 72.5851444,40.5107509 72.2339293,40.8655914 C71.8827143,41.2204319 71.4676482,41.4982069 70.9887186,41.6989247 C70.509789,41.8996426 69.9900695,42 69.4295445,42 C68.8690195,42 68.3493,41.8996426 67.8703704,41.6989247 C67.3914408,41.4982069 66.9763747,41.2204319 66.6251596,40.8655914 C66.2739446,40.5107509 65.9990077,40.0896082 65.8003406,39.6021505 C65.6016735,39.1146929 65.5023414,38.5806481 65.5023414,38 C65.5023414,37.4193519 65.6016735,36.8853071 65.8003406,36.3978495 C65.9990077,35.9103918 66.2739446,35.4892491 66.6251596,35.1344086 C66.9763747,34.7795681 67.3914408,34.5017931 67.8703704,34.3010753 C68.3493,34.1003574 68.8690195,34 69.4295445,34 C69.9900695,34 70.509789,34.1003574 70.9887186,34.3010753 C71.4676482,34.5017931 71.8827143,34.7795681 72.2339293,35.1344086 C72.5851444,35.4892491 72.8600813,35.9103918 73.0587484,36.3978495 C73.2574155,36.8853071 73.3567476,37.4193519 73.3567476,38 L73.3567476,38 Z M72.5478927,38 C72.5478927,37.5555533 72.4769413,37.1326185 72.3350362,36.7311828 C72.1931311,36.3297471 71.9873719,35.976704 71.7177522,35.672043 C71.4481326,35.367382 71.1199821,35.1254489 70.7332908,34.9462366 C70.3465995,34.7670242 69.9120217,34.6774194 69.4295445,34.6774194 C68.9470673,34.6774194 68.5124895,34.7670242 68.1257982,34.9462366 C67.7391069,35.1254489 67.4109564,35.367382 67.1413367,35.672043 C66.8717171,35.976704 66.6659579,36.3297471 66.5240528,36.7311828 C66.3821477,37.1326185 66.3111963,37.5555533 66.3111963,38 C66.3111963,38.4444467 66.3821477,38.8673815 66.5240528,39.2688172 C66.6659579,39.6702529 66.8717171,40.0215039 67.1413367,40.3225806 C67.4109564,40.6236574 67.7391069,40.8637984 68.1257982,41.0430108 C68.5124895,41.2222231 68.9470673,41.311828 69.4295445,41.311828 C69.9120217,41.311828 70.3465995,41.2222231 70.7332908,41.0430108 C71.1199821,40.8637984 71.4481326,40.6236574 71.7177522,40.3225806 C71.9873719,40.0215039 72.1931311,39.6702529 72.3350362,39.2688172 C72.4769413,38.8673815 72.5478927,38.4444467 72.5478927,38 L72.5478927,38 Z M76.5070243,40.7419355 L76.5283099,40.7419355 L78.4120903,34.1935484 L79.3273734,34.1935484 L81.2111537,40.7419355 L81.2324393,40.7419355 L83.0736484,34.1935484 L83.8825032,34.1935484 L81.6581524,41.8064516 L80.764155,41.8064516 L78.8697318,35.2688172 L78.8484462,35.2688172 L76.954023,41.8064516 L76.0600255,41.8064516 L73.8356748,34.1935484 L74.6445296,34.1935484 L76.5070243,40.7419355 Z M85.5321413,41.1182796 L89.5657727,41.1182796 L89.5657727,41.8064516 L84.7658578,41.8064516 L84.7658578,34.1935484 L89.4380588,34.1935484 L89.4380588,34.8817204 L85.5321413,34.8817204 L85.5321413,37.5053763 L89.1826309,37.5053763 L89.1826309,38.1827957 L85.5321413,38.1827957 L85.5321413,41.1182796 Z M91.5666241,41.8064516 L90.8003406,41.8064516 L90.8003406,34.1935484 L93.0140485,34.1935484 C93.3830017,34.1935484 93.7253425,34.2293903 94.0410813,34.3010753 C94.3568201,34.3727602 94.6299832,34.4892465 94.860579,34.6505376 C95.0911747,34.8118288 95.2703272,35.0215041 95.3980417,35.2795699 C95.5257563,35.5376357 95.5896126,35.8530447 95.5896126,36.2258065 C95.5896126,36.5053777 95.5399466,36.7598555 95.440613,36.9892473 C95.3412795,37.2186391 95.2064717,37.4175619 95.0361856,37.5860215 C94.8658995,37.7544811 94.6636878,37.8888884 94.4295445,37.9892473 C94.1954011,38.0896062 93.9399758,38.1541217 93.663261,38.1827957 L95.8663261,41.8064516 L94.9297573,41.8064516 L92.8437633,38.2473118 L91.5666241,38.2473118 L91.5666241,41.8064516 Z M91.5666241,37.5806452 L92.8969774,37.5806452 C93.5142645,37.5806452 93.9896393,37.4677431 94.3231162,37.2419355 C94.6565931,37.0161279 94.8233291,36.6774216 94.8233291,36.2258065 C94.8233291,35.9749091 94.7772106,35.7634417 94.6849723,35.5913978 C94.592734,35.419354 94.4650214,35.2795704 94.3018306,35.172043 C94.1386397,35.0645156 93.9399756,34.9856633 93.7058323,34.9354839 C93.4716889,34.8853044 93.212716,34.8602151 92.9289059,34.8602151 L91.5666241,34.8602151 L91.5666241,37.5806452 Z M97.6756066,41.1182796 L101.709238,41.1182796 L101.709238,41.8064516 L96.9093231,41.8064516 L96.9093231,34.1935484 L101.581524,34.1935484 L101.581524,34.8817204 L97.6756066,34.8817204 L97.6756066,37.5053763 L101.326096,37.5053763 L101.326096,38.1827957 L97.6756066,38.1827957 L97.6756066,41.1182796 Z M102.943806,34.1935484 L105.44487,34.1935484 C105.913157,34.1935484 106.38321,34.2724006 106.855045,34.4301075 C107.326879,34.5878144 107.752588,34.8261633 108.132184,35.1451613 C108.51178,35.4641593 108.818645,35.8620048 109.052788,36.3387097 C109.286932,36.8154146 109.404002,37.3691725 109.404002,38 C109.404002,38.637996 109.286932,39.193546 109.052788,39.6666667 C108.818645,40.1397873 108.51178,40.5358407 108.132184,40.8548387 C107.752588,41.1738367 107.326879,41.4121856 106.855045,41.5698925 C106.38321,41.7275994 105.913157,41.8064516 105.44487,41.8064516 L102.943806,41.8064516 L102.943806,34.1935484 Z M103.710089,41.1182796 L105.232014,41.1182796 C105.799634,41.1182796 106.29452,41.0286747 106.716688,40.8494624 C107.138856,40.67025 107.488292,40.4354853 107.765006,40.1451613 C108.041721,39.8548373 108.249254,39.5232994 108.387612,39.1505376 C108.525969,38.7777759 108.595147,38.3942672 108.595147,38 C108.595147,37.6057328 108.525969,37.2222241 108.387612,36.8494624 C108.249254,36.4767006 108.041721,36.1451627 107.765006,35.8548387 C107.488292,35.5645147 107.138856,35.32975 106.716688,35.1505376 C106.29452,34.9713253 105.799634,34.8817204 105.232014,34.8817204 L103.710089,34.8817204 L103.710089,41.1182796 Z" id="Powered" fill="#000000"></path>
    </g>
</svg>