
<svg width="50px" height="51px" viewBox="0 0 50 51" version="1.1" xmlns="http://www.w3.org/2000/svg" xmlns:xlink="http://www.w3.org/1999/xlink">
    <!-- Generator: Sketch 41 (35326) - http://www.bohemiancoding.com/sketch -->
    <desc>Created with Sketch.</desc>
    <defs>
        <circle id="path-1" cx="25" cy="25" r="25"></circle>
    </defs>
    <mask id="mask-2" fill="white">
        <use xlink:href="#path-1"></use>
    </mask>
    <use id="Oval" stroke="none" fill="#D8D8D8" fill-rule="evenodd" xlink:href="#path-1"></use>
    <path d="M9.74998474,41.6099829 C10.1072072,41.1855807 10.6164818,40.7941629 11.3367029,40.4930554 C13.9563866,39.3978272 16.7066291,39.4256834 19.4067703,38.1738464 C19.6347321,36.3024904 19.7739792,34.0525913 19.6838706,31.9671805 C19.2976847,31.4174805 18.9689742,30.8836663 18.7045399,30.4542036 C17.6001461,28.660579 17.3297666,26.8349667 17.3097707,25.581999 C16.9783048,25.340808 16.666125,25.0848911 16.4332761,24.8365779 C15.5734638,23.9196623 15.7727013,21.4653352 16.0175793,20.8061113 C16.1099012,20.5575761 16.3207225,20.3660233 16.5842269,20.2729826 C16.367937,19.488385 16.1872721,18.5325774 16.1872721,17.5287556 C16.1872721,15.0279892 16.0688362,13.5900069 16.7361515,12.1813656 C18.1278337,9.24365258 21.7419121,7.5 25.3990542,7.5 C25.400691,7.64119579 25.4022108,7.8005133 25.4036199,7.97672198 C25.4123849,7.80314386 25.4177366,7.64388618 25.4194047,7.5 C28.1622612,7.5 31.7763397,9.24365258 33.1680219,12.1813656 C33.8353372,13.5900069 33.7169012,15.0279892 33.7169012,17.5287556 C33.7169012,18.5325774 33.5362364,19.488385 33.3199465,20.2729826 C33.5834508,20.3660233 33.7942722,20.5575761 33.886594,20.8061113 C34.131472,21.4653352 34.3307096,23.9196623 33.4708973,24.8365779 C33.2380484,25.0848911 32.9258685,25.340808 32.5944027,25.581999 C32.5744067,26.8349667 32.3040273,28.660579 31.1996335,30.4542036 C30.9351991,30.8836663 30.6064886,31.4174805 30.2203028,31.9671805 C30.1301941,34.0525913 30.2694413,36.3024904 30.497403,38.1738464 C33.1975443,39.4256834 35.9477868,39.3978272 38.5674704,40.4930554 C39.2817741,40.7916889 39.7885833,41.1791549 40.1453528,41.5995287 C36.1056637,45.2696907 30.7793337,47.5 24.9419115,47.5 C19.1100338,47.5 13.7882779,45.2739255 9.74998474,41.6099829 Z" id="Path-155" stroke="none" fill="#FFFFFF" fill-rule="evenodd" mask="url(#mask-2)"></path>
</svg>