<svg width="120px" height="19px" viewBox="0 0 120 19" version="1.1" xmlns="http://www.w3.org/2000/svg" xmlns:xlink="http://www.w3.org/1999/xlink">
    <!-- Generator: Sketch 41 (35326) - http://www.bohemiancoding.com/sketch -->
    <desc>Created with Sketch.</desc>
    <defs></defs>
    <path d="M9.9033553,13.1439607 C10.5239528,12.3594439 10.8342468,11.2878262 10.8342468,9.92907542 L10.8342468,0.563447397 L14.606171,0.563447397 L14.606171,10.0503918 C14.606171,12.5090837 13.9291657,14.3975571 12.5751349,15.7158689 C11.2211041,17.0341806 9.48829301,17.6933266 7.37664971,17.6933266 C5.2650064,17.6933266 3.52816554,17.0301368 2.16607501,15.7037373 C0.803984479,14.3773377 0.12294943,12.4929081 0.12294943,10.0503918 L0.12294943,0.563447397 L3.89487357,0.563447397 L3.89487357,9.92907542 C3.89487357,11.2878262 4.20919744,12.3594439 4.83785461,13.1439607 C5.46651178,13.9284775 6.31276835,14.32073 7.37664971,14.32073 C8.44053107,14.32073 9.28275784,13.9284775 9.9033553,13.1439607 Z M29.5326492,2.07990271 C30.7174261,3.09087797 31.3098057,4.64371269 31.3098057,6.73845344 C31.3098057,8.83319418 30.701307,10.3658097 29.4842912,11.3363459 C28.2672754,12.3068822 26.4095407,12.792143 23.9110315,12.792143 L21.6623844,12.792143 L21.6623844,17.5234836 L17.8904602,17.5234836 L17.8904602,0.563447397 L23.8626735,0.563447397 C26.4578992,0.563447397 28.3478722,1.06892745 29.5326492,2.07990271 L29.5326492,2.07990271 Z M26.7641536,8.75230609 C27.2154972,8.24277456 27.4411656,7.49870793 27.4411656,6.52008387 C27.4411656,5.54145981 27.1469907,4.84591927 26.5586321,4.43344136 C25.9702734,4.02096345 25.0555104,3.81472759 23.8143154,3.81472759 L21.6623844,3.81472759 L21.6623844,9.51659957 L24.2011795,9.51659957 C25.4584938,9.51659957 26.31281,9.26183763 26.7641536,8.75230609 L26.7641536,8.75230609 Z M38.8845494,3.94817566 C38.5218626,4.24742434 38.3405219,4.64372069 38.3405219,5.13707662 C38.3405219,5.63043255 38.5621605,6.02268507 39.0054444,6.31384595 C39.4487283,6.60500682 40.4722958,6.94873326 42.0761775,7.34503556 C43.6800593,7.74133786 44.9252654,8.3357824 45.8118332,9.12838701 C46.698401,9.92099162 47.1416782,11.07753 47.1416782,12.5980368 C47.1416782,14.1185436 46.5734774,15.3519149 45.4370587,16.2981877 C44.3006399,17.2444606 42.8055867,17.7175899 40.951854,17.7175899 C38.2760312,17.7175899 35.8662149,16.7228052 33.7223327,14.7332059 L35.9709798,11.9671914 C37.7924736,13.5685762 39.4769272,14.3692566 41.024391,14.3692566 C41.7175258,14.3692566 42.2615479,14.2196345 42.6564736,13.9203858 C43.0513992,13.6211371 43.2488591,13.2167531 43.2488591,12.7072216 C43.2488591,12.19769 43.0393098,11.793306 42.6202051,11.4940573 C42.2011003,11.1948086 41.3709629,10.8915206 40.129768,10.5841841 C38.1631994,10.1150916 36.7245632,9.50447169 35.8138163,8.75230609 C34.9030694,8.0001405 34.4477027,6.8193391 34.4477027,5.20986648 C34.4477027,3.60039386 35.0239632,2.35893486 36.1765013,1.48545223 C37.3290395,0.611969599 38.7676756,0.175234836 40.492453,0.175234836 C41.620812,0.175234836 42.7491541,0.369339175 43.8775131,0.757553677 C45.0058721,1.14576818 45.9891417,1.69573047 46.8273512,2.40745706 L44.9172101,5.17347155 C43.4503434,4.05735486 41.9351412,3.49930488 40.371558,3.49930488 C39.7429008,3.49930488 39.2472362,3.64892698 38.8845494,3.94817566 L38.8845494,3.94817566 Z M58.0410345,3.83899087 L58.0410345,17.5234836 L54.2691104,17.5234836 L54.2691104,3.83899087 L49.4816682,3.83899087 L49.4816682,0.563447397 L62.8284767,0.563447397 L62.8284767,3.83899087 L58.0410345,3.83899087 Z M97.0708256,0.563447397 L100.84275,0.563447397 L100.84275,17.5234836 L97.0708256,17.5234836 L89.0192183,6.89616479 L89.0192183,17.5234836 L85.2472942,17.5234836 L85.2472942,0.563447397 L88.7774283,0.563447397 L97.0708256,11.4819257 L97.0708256,0.563447397 Z M119.698316,8.95854402 C119.698316,11.5951675 118.912506,13.6817891 117.340863,15.2184716 C115.76922,16.755154 113.371493,17.5234836 110.14761,17.5234836 L104.368829,17.5234836 L104.368829,0.563447397 L110.341042,0.563447397 C113.355373,0.563447397 115.668474,1.30347019 117.280416,2.78353798 C118.892357,4.26360576 119.698316,6.32192053 119.698316,8.95854402 Z M114.51192,12.8649329 C115.438786,11.9914503 115.902212,10.7216844 115.902212,9.05559716 C115.902212,7.38950992 115.438786,6.10761251 114.51192,5.20986648 C113.585054,4.31212044 112.162537,3.86325416 110.244326,3.86325416 L108.140753,3.86325416 L108.140753,14.1751503 L110.534474,14.1751503 C112.259252,14.1751503 113.585054,13.7384155 114.51192,12.8649329 L114.51192,12.8649329 Z" id="UPST---ND" stroke="none" fill="#4A4A4A" fill-rule="evenodd"></path>
    <g id="Asset-1" stroke="none" stroke-width="1" fill="none" fill-rule="evenodd" transform="translate(62.840541, 0.434783)">
        <g id="Layer_2" fill="#009849">
            <g>
                <g id="Layer_1-2">
                    <polygon id="Shape" points="19.3127484 17.0488429 14.2059876 7.91222057 10.8332859 10.0656039 10.8332859 14.3002476"></polygon>
                    <polygon id="Shape" points="4.88772391 8.22098633 9.01902715 10.7064519 9.01902715 6.4543719 8.35978502 2.00811486"></polygon>
                    <polygon id="Shape" points="10.438029 7.12804721 10.438029 8.32718926 13.597029 6.73969321 11.8724326 3.65426029"></polygon>
                    <polygon id="Shape" points="4.21094852 9.51477525 0 17.0488429 8.43924552 14.3129286 8.54018212 12.59149"></polygon>
                    <polygon id="Shape" points="11.2540112 2.85796843 9.65637418 0 9.09649151 1.00179481 9.83301322 5.72227733"></polygon>
                </g>
            </g>
        </g>
    </g>
</svg>